<svg width="48" height="48" viewBox="0 0 48 48" fill="none" xmlns="http://www.w3.org/2000/svg">
<path d="M32.5767 46.0826C35.9484 45.2992 38.4222 42.9251 40.5863 39.8805C39.5335 43.0551 36.4198 45.4327 33.0549 46.7053C27.0306 48.9836 20.177 48.2139 14.8167 44.7211C9.30494 41.1257 6.53875 35.0569 7.32319 28.5708C7.65348 25.8409 8.29686 23.2752 8.87831 20.6C10.2545 14.2507 9.23269 7.9391 5.53411 2.5648C5.13845 1.99008 5.15221 0.926165 5.59948 0.430128C5.98482 0.00250945 6.9929 -0.100119 7.67068 0.094875L19.4373 3.48503C23.6313 4.69263 27.4675 6.47494 30.8564 9.24248C36.7054 14.0181 40.7033 20.5453 42.2584 27.9174C42.9327 31.1194 43.0463 34.3317 41.7423 37.2498C41.7733 33.6065 41.8283 30.4044 40.8409 27.0417C37.8407 16.8096 30.361 8.29146 19.9637 5.31866L6.69013 1.52141C10.4025 7.19676 11.7615 13.5529 10.3887 20.1108L8.73381 28.0029C7.37824 34.472 10.2786 40.8281 15.9314 44.2695C20.8548 47.2663 26.7622 47.9573 32.2636 46.3461L32.2051 46.0245C31.0422 42.3059 29.9103 38.2726 27.9354 34.6875C24.2885 32.9325 19.9362 32.9086 15.9142 32.9633C15.7009 32.9633 14.9474 32.6691 15.0816 32.5186L15.6906 31.831C19.7229 30.8526 23.4421 31.7284 27.3437 33.5244C25.066 28.9574 22.2586 25.2696 19.2034 21.5168L18.8971 20.9079C18.8387 20.795 19.0004 20.4221 19.1173 20.4734L19.9155 20.8224C24.6497 25.167 27.963 30.6405 30.2371 36.5758C30.3541 33.2267 30.5055 30.1068 32.1914 27.4077C33.1788 25.8272 34.3107 24.021 36.6365 24.0244C33.9667 27.1511 32.0675 29.9426 31.4276 33.8664C31.2659 34.8619 30.8014 36.1482 30.478 37.065C31.4035 40.0036 32.1157 42.9217 32.5148 45.8227L32.5767 46.0929V46.0826Z" fill="#3D4A3B"/>
<path d="M25.4514 25.6458L24.2163 15.4103C24.1853 15.1674 24.495 14.4079 24.6532 14.514L25.448 15.0442C26.2427 18.4447 26.8827 22.0401 25.4549 25.6458H25.4514Z" fill="#3D4A3B"/>
</svg>
