<svg width="48" height="48" viewBox="0 0 48 48" fill="none" xmlns="http://www.w3.org/2000/svg">
<g clip-path="url(#clip0_1048_1109)">
<path d="M44.9611 29.4025C44.9246 33.2987 43.3059 36.4866 41.0416 39.3997C36.9103 44.7128 30.5842 47.2883 23.8179 46.7818C20.8485 46.56 18.0943 45.8681 15.6082 44.299C11.9404 44.4645 8.36519 43.9945 5.0714 42.8127C4.3994 43.147 3.25071 43.243 2.91968 42.2367L7.50782 38.2576L6.85899 34.8016C4.91913 24.4535 10.0402 15.4725 18.1572 9.1928C22.4308 5.88577 26.9528 3.36329 32.0242 0.900391C32.4182 9.2888 32.4413 17.558 29.2899 24.9534C27.7737 28.2074 25.6982 30.9484 22.7453 33.0174C18.6405 35.8874 13.92 38.8535 8.9743 39.0852L6.33264 41.5713C9.47747 42.6803 12.672 43.2662 16.1213 43.3225C17.1509 41.5415 17.9486 39.8532 19.0808 38.2543C21.1233 35.3743 24.1059 33.4841 27.1117 31.7098C29.6673 30.8491 32.203 30.0976 34.9009 29.9487L44.9677 29.3991L44.9611 29.4025ZM19.9017 22.0005L21.2457 21.835C21.4311 21.8118 21.3947 22.4607 21.2292 22.5567L19.1569 23.755C17.4157 27.3269 15.3235 30.3856 13.099 33.6066L10.4044 37.5062C29.0151 31.7363 31.8422 20.8518 31.1602 2.62508C16.7073 9.6397 4.41264 19.8521 8.28906 37.2513L13.2579 31.4052L12.7779 28.1081C13.4631 28.2836 13.7511 28.4193 13.824 28.6808L14.1782 29.9586C16.5749 26.5423 18.4121 22.9473 19.9646 18.9683C20.0573 18.8027 20.5274 18.2665 20.6598 18.4254L21.1233 18.9815L19.9051 22.0038L19.9017 22.0005ZM35.6524 35.9503L36.0496 36.7978L33.7423 38.2345L34.8612 38.9627C33.7622 39.7605 32.8816 39.7671 31.7395 39.3699C27.5619 41.6011 23.3048 43.2496 18.475 44.1798C29.707 47.3876 41.9983 42.571 43.9382 30.475L34.9737 30.9649C27.6082 31.3688 20.1897 35.9702 17.568 43.286C20.395 42.9252 23.3379 42.1705 25.9365 41.0516L26.4066 37.867C26.4231 37.7644 26.9131 37.3771 26.9892 37.4466L27.4427 37.8604L27.1315 40.6378C30.1638 39.0918 32.5373 37.7677 35.6491 35.947L35.6524 35.9503Z" fill="#3D4A3B"/>
</g>
<defs>
<clipPath id="clip0_1048_1109">
<rect width="48" height="48" fill="white"/>
</clipPath>
</defs>
</svg>
