<svg width="48" height="48" viewBox="0 0 48 48" fill="none" xmlns="http://www.w3.org/2000/svg">
<path d="M41.5217 41.5284L5.64414 41.3595C2.44966 41.343 0.360833 38.698 0.82097 35.626L3.10511 35.1361L2.73766 24.1656C2.63173 20.9513 2.81711 17.8793 3.11504 14.6881C3.22428 13.5162 4.2869 12.4669 5.45214 12.4304L10.4475 12.2782L10.5766 7.50134C15.5123 5.80314 20.8684 6.10107 25.5757 8.47789C29.8295 6.06134 35.0665 6.29638 39.4295 8.5441L39.3666 12.351L44.021 12.682C44.7823 12.735 45.6298 14.4498 45.6331 15.2542L45.7092 36.063L47.2949 36.3378C47.381 37.6851 46.8944 39.2178 45.9873 40.1744C44.8452 41.386 43.4549 41.5416 41.5217 41.535V41.5284ZM19.0279 26.9364C21.2657 27.1615 22.9771 27.5687 24.9898 28.5253L24.907 9.24258C20.6897 7.2001 16.0386 6.8492 11.4902 8.21638C11.3512 15.0953 11.5134 21.663 11.755 28.671C14.2775 27.7838 16.3796 27.2476 19.0279 26.9364ZM37.6883 28.3367C37.6684 24.5165 37.8836 21.1433 38.0524 17.5582L38.4497 9.09031C34.229 7.31596 30.1142 7.18024 25.9035 9.33858L25.9663 28.9623C29.8328 26.9099 33.9675 26.7742 37.6883 28.34V28.3367ZM5.4058 18.3361C5.31311 16.7835 6.14069 15.7143 7.65352 15.6415L10.4375 15.5091L10.3647 13.2183C8.09049 13.2713 6.55449 13.3242 4.33325 13.6553C3.79366 17.1808 3.59835 20.3554 3.7109 23.8313L4.07504 35.1328L6.42207 35.4109L5.40911 18.3295L5.4058 18.3361ZM43.2993 36.0431L44.7195 36.063L44.6268 15.0853C44.6235 14.0459 43.5641 13.46 42.7961 13.45L39.3335 13.3971L39.2475 14.751C39.2143 15.2939 42.8756 14.3902 43.2828 16.6412C43.5244 17.9852 43.1835 19.5311 43.1338 20.9314C42.9451 26.036 43.1239 30.9518 43.2993 36.0464V36.0431ZM39.8665 31.6073L41.7401 29.439C42.0513 29.0782 42.1308 28.0784 41.9487 27.8037C41.4555 28.5618 41.0781 29.4754 39.9857 28.7902L41.8262 26.5987C42.1672 26.1915 42.0977 24.8542 41.9454 24.4867C41.3892 25.2812 41.2072 26.0293 39.9658 25.5361L41.6872 23.3778C42.048 22.9242 42.1738 21.6266 42.0447 21.2293L40.8993 21.4975C40.7239 21.5372 40.6941 20.9182 40.843 20.8155L41.3826 20.4514C42.0778 19.978 42.528 19.114 42.3393 18.5281L41.3462 18.7499C41.1807 18.7863 41.0814 18.2997 41.184 18.1706L41.5713 17.684L42.2235 16.863C42.3526 16.6975 42.005 16.34 41.8097 16.1811L39.9956 18.2335C39.7109 17.1675 39.893 17.098 40.469 16.0288L39.3468 16.0354C38.8701 16.0387 38.5258 25.7744 38.7343 29.9124C34.8844 27.8335 30.6968 27.6978 26.9297 29.6012C26.2908 29.9223 25.1123 29.8197 24.4999 29.4787C19.9382 26.943 16.0287 28.1844 11.285 29.8693C11.093 29.3794 10.7553 28.436 10.7454 28.0155L10.4441 16.5518C8.84194 16.4955 7.76607 16.5419 6.34925 17.1047L7.392 35.3844L42.3161 35.9504L42.2963 33.6762L40.6808 34.9044C40.5087 34.666 40.2406 34.1198 40.3829 33.9841L40.843 33.5471C41.664 32.7692 42.3658 31.9251 42.0679 30.6241C41.3131 31.3127 41.1542 31.978 39.8665 31.604V31.6073ZM35.1393 38.7047C35.0665 38.8271 34.709 39.1582 34.6163 39.0721L34.1396 38.6186L35.0599 36.7714C34.5699 36.7549 33.8681 36.8078 33.7192 37.0958L33.1432 38.218C33.0505 38.4001 32.3983 38.0459 32.4579 37.8373L32.7757 36.7251L29.6872 36.6953L29.4323 39.0721C25.6784 39.231 22.2852 39.2045 18.6008 38.8106L18.4585 36.5165L1.70814 36.3179C1.74125 38.4498 3.168 40.3664 5.3429 40.3731L39.4957 40.4823C39.9029 38.9463 40.2505 38.0889 40.6345 37.0197L40.0486 36.8343L38.7211 39.423C38.6152 39.6249 38.1848 40.1149 38.0723 39.9262C37.9895 39.7838 37.8075 39.2674 37.867 39.1184L38.7906 36.7582C37.9068 36.9535 37.7876 37.3938 37.3903 38.1022L36.96 38.8669C36.8905 38.9893 36.341 38.6815 36.3807 38.5458L36.6058 37.7744C36.6819 37.5162 36.6124 36.9733 36.437 36.5264L35.136 38.7047H35.1393ZM28.5219 38.2015L28.5948 36.6622L19.5079 36.5298L19.6568 38.0327L28.5186 38.2015H28.5219ZM43.7628 37.2746L42.2863 40.3367C41.2039 39.4594 42.0745 38.7444 42.3261 38.0691L42.6604 37.1852C42.7233 37.0131 41.8626 37.023 41.7832 37.1885L40.3101 40.2936C41.6408 40.8564 43.6866 40.8067 45.0935 39.658L44.203 39.1482C44.011 39.039 44.4315 38.4431 44.5208 38.2346L44.9479 37.2117C45.0372 36.9965 43.8654 37.066 43.7661 37.2746H43.7628Z" fill="#3D4A3B"/>
<path d="M18.1704 14.6383L12.9831 14.251L12.907 9.55688C14.8468 9.61978 16.2736 9.69923 18.1539 9.89454L18.1704 14.635V14.6383ZM17.2502 13.6352C16.9787 13.2678 16.6576 12.9897 16.7503 12.8076L17.3329 11.6623C16.3531 11.1591 15.1547 10.699 13.9233 10.4076L13.91 13.334L17.2468 13.6352H17.2502Z" fill="#3D4A3B"/>
<path d="M23.3114 21.9278L14.0093 21.6927C13.8273 21.6365 13.291 21.4478 13.3572 21.2988L13.622 20.6897L22.8182 20.9413L23.3908 21.1664C23.51 21.2127 23.4041 21.6034 23.3114 21.9278Z" fill="#3D4A3B"/>
<path d="M22.3977 18.4617L13.7014 17.8328C13.4928 17.8162 12.9135 17.4951 13.0261 17.3826L13.5855 16.8264L22.5963 17.5083C22.7949 17.5083 22.7122 18.4816 22.3977 18.4584V18.4617Z" fill="#3D4A3B"/>
<path d="M22.5731 25.4664L15.393 25.2446C15.1944 25.238 14.5124 24.7613 14.6449 24.662C14.7773 24.5627 15.2175 24.2648 15.4129 24.2681L22.3282 24.4899C22.4771 24.4932 23.0068 24.7415 23.1127 24.7779C23.2683 24.8275 22.7519 25.43 22.5731 25.4664Z" fill="#3D4A3B"/>
<path d="M22.9341 12.7415L19.6734 12.1324L18.9849 12.0033C18.8094 11.9702 19.0908 11.136 19.2696 11.1625L22.9076 11.6921C23.0599 11.7153 23.0864 12.768 22.9341 12.7415Z" fill="#3D4A3B"/>
<path d="M22.4142 14.9298L19.7395 14.4167C19.6104 14.3935 19.2396 14.1353 19.137 14.0558C18.9814 13.9367 19.4515 13.3143 19.6435 13.3574L22.1064 13.9036C22.2123 13.9267 22.6393 14.1585 22.7353 14.2114C22.8777 14.2909 22.6096 14.6782 22.4176 14.9298H22.4142Z" fill="#3D4A3B"/>
<path d="M36.4767 21.9839C33.9277 21.6926 30.6968 21.5138 28.0651 21.6231L27.9956 20.6167C30.8193 20.6035 33.2524 20.6962 36.0431 20.8816L36.6422 21.1596C36.7614 21.2159 36.5859 21.8118 36.48 21.9806L36.4767 21.9839Z" fill="#3D4A3B"/>
<path d="M36.2714 14.89L29.8527 14.592L29.0582 14.4894C28.9092 14.4695 29.0251 13.834 29.1707 13.7975L29.9023 13.6155L36.2251 13.9035C36.4502 13.9134 36.9434 14.2941 37.0725 14.4033C37.2016 14.5126 36.4833 14.8999 36.2681 14.89H36.2714Z" fill="#3D4A3B"/>
<path d="M35.2551 11.414L28.9622 11.371L29.0151 10.3911L35.2452 10.4408C35.4604 10.4408 36.182 11.0234 36.0364 11.1095C35.8907 11.1955 35.4835 11.414 35.2551 11.4107V11.414Z" fill="#3D4A3B"/>
<path d="M35.3546 25.6387L29.1741 25.4203C28.959 25.4136 28.5352 25.1455 28.3929 25.0197C28.2505 24.8939 29.0219 24.4305 29.2337 24.4371L35.391 24.6523C35.6061 24.6589 36.3443 25.215 36.1755 25.3209C36.0067 25.4269 35.5598 25.6454 35.3512 25.6387H35.3546Z" fill="#3D4A3B"/>
<path d="M35.2155 18.144L29.2701 17.8063C29.0648 17.7964 28.6213 17.5018 28.4855 17.4058C28.3498 17.3098 29.1013 16.8066 29.2866 16.8166L35.2386 17.1708C35.4042 17.1807 35.9272 17.6276 36.0497 17.7335C36.1722 17.8394 35.4505 18.1572 35.2155 18.144Z" fill="#3D4A3B"/>
</svg>
