<svg width="32" height="32" viewBox="0 0 32 32" fill="none" xmlns="http://www.w3.org/2000/svg">
<path d="M23.0027 16.6533C22.6241 19.8066 20.5587 21.0666 19.6667 21.9813C18.7734 22.8986 18.9334 23.0813 18.9934 24.4266C19.0034 24.5931 18.9792 24.7598 18.9223 24.9165C18.8655 25.0733 18.7771 25.2167 18.6627 25.338C18.5482 25.4593 18.4102 25.5559 18.257 25.6218C18.1038 25.6877 17.9388 25.7216 17.7721 25.7213H14.228C14.0614 25.721 13.8966 25.6868 13.7436 25.6207C13.5906 25.5546 13.4527 25.458 13.3383 25.3368C13.2239 25.2157 13.1354 25.0725 13.0781 24.916C13.0209 24.7595 12.9961 24.593 13.0054 24.4266C13.0054 23.1066 13.1281 22.7999 12.3334 21.9813C11.3201 20.9679 8.93605 19.5373 8.93605 15.6026C8.92996 14.6253 9.12641 13.6573 9.513 12.7596C9.89959 11.862 10.468 11.0542 11.1822 10.3871C11.8965 9.71999 12.7413 9.20811 13.6632 8.88371C14.5852 8.5593 15.5643 8.4294 16.539 8.5022C17.5136 8.575 18.4626 8.84891 19.3261 9.30668C20.1896 9.76444 20.949 10.3961 21.5562 11.1619C22.1635 11.9277 22.6056 12.811 22.8545 13.7561C23.1035 14.7012 23.1539 15.6877 23.0027 16.6533Z" stroke="#3D4A3B" stroke-width="1.5" stroke-linecap="round" stroke-linejoin="round"/>
<path d="M13.9467 25.648V27.664C13.9467 28.2146 14.2534 28.6666 14.6307 28.6666H17.368C17.748 28.6666 18.0534 28.2133 18.0534 27.664V25.648M14.96 11.5946C14.1727 11.595 13.4178 11.908 12.8613 12.4648C12.3047 13.0216 11.992 13.7767 11.992 14.564M25.776 15.872H28.2214M23.3147 7.85598L25.0494 6.12131M24.648 22.6666L26.3827 24.4M16 3.16931V5.14664M6.9867 6.11998L8.70936 7.85598M5.65336 24.4L7.37603 22.6666M6.22403 15.872H3.78003" stroke="#3D4A3B" stroke-width="1.5" stroke-linecap="round" stroke-linejoin="round"/>
</svg>
