<svg width="48" height="48" viewBox="0 0 48 48" fill="none" xmlns="http://www.w3.org/2000/svg">
<path d="M35.0699 31.7961L35.8478 32.9514C35.9901 33.1633 35.0169 33.4149 34.4343 33.5704C35.6426 35.1528 37.5957 36.222 39.6084 37.3542C39.754 40.2309 34.8348 39.4993 30.783 38.8206C29.6906 38.6386 31.7264 40.691 31.3457 41.3862C31.2034 41.651 30.4453 41.5351 30.154 41.31C28.9093 40.36 27.3336 40.3997 25.7148 40.4295C23.2155 40.4758 21.6928 37.811 21.5935 35.4044C21.5239 33.7029 20.7195 31.7862 18.9187 31.7762C16.522 34.4013 14.8337 37.6058 13.8439 41.0452C13.5659 42.0118 13.9598 42.8858 14.602 43.9053C14.2081 44.3324 13.1587 44.4714 12.2517 44.2066C12.7416 39.3172 14.8569 35.0171 17.9819 31.23C15.2177 28.5685 10.5435 33.3255 6.10104 29.0154C6.02821 28.6149 6.60752 28.2275 7.32256 27.8932C4.9689 25.8739 1.5758 25.1125 1.24146 20.6502C3.43952 20.2397 5.60118 20.1735 8.04752 20.1867L6.3758 15.9098C6.32615 15.7806 6.3129 15.155 6.42877 15.1583H7.15042C7.67346 15.1649 8.25277 15.1616 8.58049 15.1153C10.3085 14.8604 6.86904 7.39885 12.4503 3.19141C12.4205 6.08796 13.4666 8.17016 15.8401 8.95472C18.6406 9.8783 19.7264 12.179 20.0674 15.0093L20.7195 11.4772L21.3584 10.5503C21.4941 10.3517 22.047 11.0336 22.2456 11.1793L22.9871 11.7222C23.5399 12.126 24.1292 9.75913 26.4597 8.94147C30.2699 7.60741 30.4519 4.66451 33.1201 4.21099C32.3918 8.61375 30.8856 12.1922 34.7124 13.6124C32.5772 15.5986 35.6856 18.4422 33.5041 19.8689C32.5805 20.4714 31.7926 20.8587 30.9915 21.736C34.378 21.1037 37.45 16.9624 37.5758 19.4419L37.6321 20.5178C37.6817 21.5042 43.3093 19.4849 46.7455 22.8085C46.719 23.1429 46.1297 23.8182 45.7855 23.9638C43.5675 24.904 41.5548 26.2778 39.7871 28.1084L41.0484 29.886C38.6384 30.376 36.6721 30.7699 35.0633 31.7961H35.0699ZM25.1256 38.9729L29.098 39.3338C29.2801 34.8284 32.6467 39.2675 37.8274 37.7713L33.9874 34.8813C33.6895 34.6562 33.6166 33.6731 33.7391 33.352L34.4839 31.3856C35.2751 30.1178 37.397 29.7271 38.7444 29.2902C38.0657 26.4631 41.9455 24.4504 44.7195 22.9045C40.959 20.7462 38.1187 23.3878 36.1457 20.8653L32.3719 22.878C31.7397 23.2157 29.9753 22.9045 29.8561 22.2458C29.6277 20.9911 31.1107 20.1106 31.9515 19.7862C34.4541 18.8195 32.6699 17.2074 32.9413 14.0328C32.2329 13.278 31.2332 11.9903 31.2696 10.9045L31.4053 6.8063C30.3096 8.77927 29.1973 10.0438 26.9165 10.4477C25.1289 10.7655 24.6224 13.96 21.6663 12.9867L21.6762 15.1318C21.6762 15.6317 20.8586 16.4725 20.3786 16.4758C19.8986 16.4791 18.9319 15.6747 18.9154 15.112C18.7532 8.9812 13.0428 11.1859 11.722 5.83637C8.76587 10.2491 13.0064 15.1053 8.21635 16.8532L9.52725 21.4049C6.6969 21.3453 5.10794 21.3222 2.32394 21.4248C4.07842 25.4303 10.901 26.8306 8.11373 29.1809C11.391 30.1178 14.4762 28.4427 17.7634 29.4259C17.8263 26.7975 17.2304 24.1326 15.8037 21.5738C13.6056 17.6344 14.5126 14.4731 15.0787 15.1418C15.8831 16.0918 15.0026 17.9886 16.906 21.4579C18.303 24.0035 18.826 26.5194 18.9154 29.598C21.034 24.9536 24.2848 21.5936 26.9364 17.2968L27.5587 17.704C27.6679 17.7735 27.4958 18.4289 27.4097 18.5481L23.3347 24.2651C22.0304 26.0957 21.0009 27.6979 20.031 29.9721C25.599 28.9426 27.221 33.3453 30.9055 32.9646C31.1206 32.9415 31.637 33.4811 31.4848 33.5771C28.1976 35.6626 25.4666 30.2071 20.9943 30.9619C24.4304 33.3652 22.8216 37.6488 25.119 38.9696L25.1256 38.9729Z" fill="#3D4A3B"/>
<path d="M37.7015 7.63698C37.6254 7.76277 36.9931 8.00112 36.9501 7.87533C36.8839 7.68995 36.7515 7.14705 36.8541 6.97822L38.4397 4.41602L38.9562 4.6345C39.1283 4.70733 39.0621 5.38595 38.9694 5.54153L37.6982 7.63698H37.7015Z" fill="#3D4A3B"/>
<path d="M39.4825 10.4075C39.3965 10.4571 38.8105 10.4836 38.7079 10.4836C38.5523 10.4836 38.5093 9.8348 38.6417 9.75204L41.5184 7.99756L42.0116 8.47094C42.1441 8.59673 41.7601 9.09328 41.5979 9.18597L39.4825 10.4075Z" fill="#3D4A3B"/>
<path d="M42.9318 12.5824C42.1009 13.6881 40.396 13.6053 39.489 12.407C40.4457 11.927 41.7963 12.0627 42.9318 12.5824Z" fill="#3D4A3B"/>
</svg>
