<svg width="48" height="48" viewBox="0 0 48 48" fill="none" xmlns="http://www.w3.org/2000/svg">
<path d="M37.6818 28.7701C42.5413 29.409 45.6531 33.6363 44.5607 38.3238C44.1767 42.0578 41.1841 44.6863 37.4103 44.7492C32.5176 44.8319 28.6114 41.0118 28.7935 36.0661C21.6001 36.4567 14.6087 36.4832 7.5179 35.8642C5.04507 35.649 3.55541 33.8118 3.30383 31.4184L3.27734 11.2485C3.27734 9.98061 4.22079 8.14999 5.28672 7.65344C6.51155 7.08406 7.87872 7.07082 9.279 6.89206C9.25252 5.89895 9.64314 3.98557 10.623 3.77371C12.2252 3.42944 13.0064 5.06144 12.8972 6.73978L15.8765 6.66695C15.7011 5.29647 15.9692 3.54861 17.2404 3.34668C18.74 3.11164 19.604 4.78006 19.3689 6.53123L22.239 6.6504C22.2158 5.27661 22.6064 3.62144 23.818 3.52213C25.3143 3.39964 26.026 5.1773 25.8175 6.66364L29.4754 6.88875C29.6111 5.79633 29.9024 4.42916 30.5579 3.78033C30.8426 3.49895 32.0542 3.59495 32.2991 3.90282C32.5838 4.26033 33.0175 5.07799 33.0969 5.53482L33.279 6.59082C33.3287 6.87219 33.9907 7.07082 34.3516 7.15026C36.1292 6.96157 37.3607 8.24268 37.4765 9.92433C37.9002 16.1577 37.9664 22.1428 37.6851 28.7569L37.6818 28.7701ZM18.7565 6.58751L17.6045 3.99882C16.8133 5.04157 16.8398 5.51164 16.7273 6.71661L18.7565 6.58751ZM12.3179 6.83247L11.007 4.3762L10.0967 6.95495L12.3179 6.83247ZM24.7681 6.62723C25.0296 5.82282 24.7118 4.75357 23.7584 4.34971L23.0931 6.64709L24.7714 6.62723H24.7681ZM32.1038 6.71992C32.3521 6.16709 32.0178 4.92902 31.2862 4.4722C30.9618 4.9522 30.6936 5.81288 30.4784 6.7464C30.6936 6.91192 31.9681 7.02447 32.1038 6.71992ZM31.9184 9.77206C32.2826 10.1097 31.7066 11.0796 31.1968 11.1889C30.7201 11.2915 29.8528 10.7916 29.8693 10.3348C29.9058 9.47413 29.8197 8.47771 29.6078 7.8653L23.3413 7.68323C23.4506 8.36847 23.9306 9.08682 24.5231 9.70254C24.8409 10.0336 24.2881 10.8545 23.8743 10.9572C23.3877 11.0763 22.3714 10.646 22.388 10.1693C22.4144 9.46751 22.3913 8.36847 22.2655 7.63357L16.7306 7.72626L18.0282 9.16957C18.303 9.47413 18.0944 10.5533 17.6939 10.5566C17.3298 10.5632 16.7107 10.5103 16.2473 10.4474C15.9196 10.401 16.052 9.54033 16.0255 9.20599L15.903 7.68323L10.2556 7.99771L11.4473 9.49399C11.6989 9.80847 11.5002 10.7652 11.1096 10.9009C10.719 11.0366 9.74245 10.9141 9.55045 10.5665C9.17307 9.89123 9.84507 8.16654 9.30217 8.11357L8.2859 8.01426C7.6139 7.94806 5.96203 8.34199 5.73362 8.97757C5.27348 10.2554 5.27017 11.6259 5.28672 12.9897H36.6688L36.4636 9.84157C36.4172 9.12323 35.6194 8.12682 34.868 8.10033L30.6473 7.95468C30.7996 8.60351 31.2829 9.17951 31.9184 9.77206ZM29.386 33.739C30.6175 30.3425 33.4412 28.8959 36.7251 28.8363C36.8608 23.7516 36.8773 18.9185 36.7416 13.9762H5.14107C4.85307 20.0805 5.03183 26.006 5.5019 32.1434C5.86934 33.0934 7.40865 33.8383 8.37528 34.0071C15.4693 34.5003 22.2986 34.3911 29.3893 33.739H29.386ZM35.7485 29.9652C31.8423 30.806 29.77 34.5996 30.6307 38.0887C31.4914 41.5778 34.9838 43.7825 38.5226 43.0145C42.0845 42.2432 44.4448 38.7012 43.6305 35.0234C42.8889 31.6799 39.5322 29.1508 35.7485 29.9652Z" fill="#3D4A3B"/>
<path d="M13.4465 21.4146L8.01092 21.4213L7.97119 16.7338L13.4134 16.6941L13.4498 21.4113L13.4465 21.4146ZM12.4402 20.4712L12.4004 17.6971L8.96098 17.7335L8.95105 20.4447L12.4368 20.4712H12.4402Z" fill="#3D4A3B"/>
<path d="M23.3942 21.4178H17.9487L17.9089 16.737L23.3545 16.6973L23.3909 21.4178H23.3942ZM22.4011 20.4214L22.3746 17.697L18.902 17.7367V20.4644L22.4011 20.4214Z" fill="#3D4A3B"/>
<path d="M13.6121 29.3231L8.21621 29.4224L8.18311 24.6953L13.5227 24.6489L13.6121 29.3231ZM12.6024 28.4095L12.5693 25.6619L9.16959 25.6751L9.18945 28.4128L12.6057 28.4062L12.6024 28.4095Z" fill="#3D4A3B"/>
<path d="M23.54 29.3231L18.1607 29.4191L18.1309 24.692L23.4572 24.6489L23.54 29.3231ZM22.5469 28.4095L22.5171 25.6619L19.1207 25.6718L19.1306 28.4128H22.5502L22.5469 28.4095Z" fill="#3D4A3B"/>
<path d="M33.0803 29.4523L27.6282 29.4357V24.8211L33.0671 24.7847L33.0803 29.4523ZM32.1005 28.4889L32.0938 25.7612L28.6246 25.7778V28.4658L32.1005 28.4923V28.4889Z" fill="#3D4A3B"/>
<path d="M32.9082 21.4708L27.5025 21.5039L27.4727 16.833H32.895L32.9049 21.4741L32.9082 21.4708ZM31.9184 20.524L31.8853 17.8062H28.4724L28.4658 20.5274H31.9184V20.524Z" fill="#3D4A3B"/>
<path d="M32.8651 36.0431L33.4842 35.3214L36.4734 38.1849L41.2668 33.4048C41.429 33.2425 41.9487 33.2227 41.9917 33.3915C42.0348 33.5603 41.9222 34.1396 41.7666 34.2919L36.4701 39.5487L32.8618 36.0398L32.8651 36.0431Z" fill="#3D4A3B"/>
</svg>
