<svg width="48" height="48" viewBox="0 0 48 48" fill="none" xmlns="http://www.w3.org/2000/svg">
<g clip-path="url(#clip0_1048_826)">
<path d="M9.77213 45.9278C12.4601 40.0817 16.6709 31.8323 14.5092 26.2379C13.7346 24.2384 11.9603 22.8448 10.3216 22.4939C7.94482 21.9841 5.70702 22.6759 4.29682 24.4801C2.32716 26.9992 1.68826 30.3162 2.7244 33.3386L5.36606 41.045C1.39033 36.7085 -0.84746 29.0086 2.95613 23.8279C4.49875 21.7292 6.8524 20.7162 9.40137 20.8817C14.5953 21.2161 17.4654 26.7377 16.1909 32.1303C14.9197 37.5162 12.6885 42.4784 9.84495 47.0765C8.3884 45.4875 7.29599 44.3454 6.19033 42.677L9.77213 45.9311V45.9278Z" fill="#3D4A3B"/>
<path d="M41.8229 19.7827L45.3815 13.1091C45.6927 15.9196 43.2 21.0109 41.8163 21.0804C40.4326 21.1499 36.6952 15.4528 35.6624 12.3874C34.6891 9.48756 34.5733 6.32287 36.2152 3.82687C37.5625 1.77777 39.7407 0.658872 42.1242 1.04618C44.2328 1.39046 46.2422 3.10191 46.7851 5.51846C47.3313 7.94825 46.9208 10.5105 45.7093 12.6721C45.9542 10.388 46.5402 8.36535 46.1065 6.30632C45.6298 4.03873 43.8985 2.41004 41.8693 2.20149C39.6017 1.96977 37.5493 3.40646 36.7647 5.70053C35.2122 10.2423 38.4066 15.6183 41.8229 19.7827Z" fill="#3D4A3B"/>
<path d="M6.90532 26.9165C6.03801 27.9195 5.63083 29.3032 6.62063 30.5016C7.46145 31.5245 9.16297 32.1534 10.4871 31.6569C11.9867 31.0941 12.2085 29.2436 11.5762 28.0354C10.8413 26.6285 9.44766 26.2147 7.58394 26.7543C7.81566 25.5592 9.0438 25.1554 10.1594 25.3474C11.7583 25.6188 12.9732 27.082 13.2248 28.383C13.5558 30.0878 13.1056 31.8985 11.5199 32.7129C9.21925 33.8947 6.1307 32.554 5.37925 30.1176C4.98201 28.8365 5.42559 27.2707 6.90532 26.9198V26.9165Z" fill="#3D4A3B"/>
<path d="M35.0102 27.0289L29.5581 27.3964C30.6737 25.6187 34.5766 24.9666 35.7518 26.3635C35.904 26.5456 35.2618 27.0091 35.0136 27.0256L35.0102 27.0289Z" fill="#3D4A3B"/>
<path d="M22.6792 42.8855L23.6922 38.5622C23.8411 37.9299 24.3079 37.2943 24.9766 37.1189C25.3043 39.3004 25.0262 41.5316 22.6792 42.8855Z" fill="#3D4A3B"/>
<path d="M27.1913 29.5977L25.3673 34.4672C24.3808 32.6862 25.258 29.2865 26.655 28.5185C26.8602 28.4059 27.3005 29.303 27.1913 29.601V29.5977Z" fill="#3D4A3B"/>
<path d="M21.365 44.673C20.7625 46.3017 18.5015 47.0432 16.8364 46.1362L20.1699 44.2957C20.4248 44.1533 21.461 44.4115 21.365 44.673Z" fill="#3D4A3B"/>
<path d="M41.5118 24.3972C41.0351 25.8869 39.4329 26.7575 38.4365 26.0855L40.3863 23.7385C40.522 23.573 40.8663 23.3313 41.0716 23.3081C41.3231 23.2784 41.6012 24.1192 41.5118 24.3939V24.3972Z" fill="#3D4A3B"/>
<path d="M15.072 45.7026C15.1945 45.8384 15.3335 46.6527 15.1448 46.7454C14.0226 47.2883 12.6058 47.0466 11.8345 46.0601C12.8971 45.6563 14.2444 45.557 15.072 45.7026Z" fill="#3D4A3B"/>
<path d="M39.6744 5.73025C39.1613 6.88887 38.9693 8.0508 39.5751 8.93797C40.3001 10.0006 41.7765 10.6031 42.8093 9.68611C43.9249 8.69632 43.5575 6.46183 42.2664 5.72694L40.2935 5.50514C40.4126 4.61135 41.601 4.04859 42.6074 4.43259C43.9613 4.9457 44.7426 6.27977 44.8981 7.56749C45.0537 8.85521 44.5572 10.4574 43.2165 11.1294C41.2866 12.0927 38.8501 10.6858 38.4198 8.61687C38.1781 7.45163 38.625 6.26983 39.6744 5.73356V5.73025Z" fill="#3D4A3B"/>
</g>
<defs>
<clipPath id="clip0_1048_826">
<rect width="48" height="48" fill="white"/>
</clipPath>
</defs>
</svg>
