<svg width="48" height="48" viewBox="0 0 48 48" fill="none" xmlns="http://www.w3.org/2000/svg">
<g clip-path="url(#clip0_1048_1088)">
<path d="M21.3152 43.8026L20.4049 45.5968L16.9357 46.729C16.79 44.8917 18.9053 45.4048 19.3224 44.852C20.0739 43.849 20.7359 42.8592 21.8449 42.3858C22.113 42.2732 22.7817 41.6277 22.7619 41.5681L21.3682 38.8172L17.5381 40.7273C13.3174 42.8327 12.0761 46.2854 8.57041 46.5734C8.438 46.2291 8.25924 45.7094 8.42476 45.6531L9.51055 45.289C11.5762 44.5971 12.9103 42.9055 14.6052 41.108L11.8973 41.4159L8.06062 41.0749C7.92821 41.0617 7.67993 40.969 7.56076 40.9325C7.44159 40.8961 7.81896 40.1281 7.94145 40.1281L11.8609 40.1943L15.9094 40.1712C17.6739 39.5588 19.5012 38.5094 21.3119 37.3772C20.6797 36.8674 19.0675 36.1789 18.465 36.5794C16.9158 37.6057 15.4427 37.8308 13.7114 37.8804L12.8176 37.9069C12.6388 37.9135 12.4468 37.3706 12.5726 37.2415C12.6984 37.1124 13.1817 36.8178 13.3605 36.8112L16.3994 36.6688C19.7461 33.1996 22.5798 38.751 23.1161 34.0768C20.9312 32.9381 18.2929 33.2757 16.2835 34.8514C15.4228 35.5268 14.2179 35.5499 13.1917 35.1295C9.50062 33.6167 6.57096 35.1394 2.98586 36.7516L2.31055 36.9634C2.15165 37.0131 1.98614 36.0564 2.13841 35.9902L6.77621 34.0205C9.55359 32.8388 12.1952 33.7756 14.8038 34.4575C17.2237 32.8255 19.8885 31.561 23.0631 32.8652L22.8281 28.8399L20.8286 27.433C16.4259 31.0181 11.5067 29.439 7.27276 25.8308C5.49179 24.3113 3.83993 22.6065 3.23414 20.2826C8.73593 20.7858 13.2976 17.1212 17.2534 19.1405C19.5972 20.3356 20.5505 22.9441 20.7591 25.3839L22.4705 26.9C22.1263 22.7025 23.0399 18.7234 22.3679 14.9563C16.7205 16.4327 11.8013 13.3143 9.98724 8.20648C9.11662 5.75683 8.2791 3.81034 7.13372 1.16538C7.75938 1.08924 8.22614 1.3309 8.92793 1.70827C10.7254 2.67821 13.0824 2.88345 15.1977 2.9331C19.478 3.03241 22.8744 5.43903 23.851 9.62C24.6355 12.9767 23.3809 16.2374 23.8046 20.2992C25.8008 19.0015 23.798 14.559 27.3632 12.1458C30.5974 9.95434 35.8841 11.6989 41.3197 10.5833C40.0816 13.0098 38.9163 15.2476 37.6253 17.4125C35.5067 20.9712 31.4383 22.3383 27.5552 21.0473C26.9925 20.8586 25.4565 20.6732 25.0526 21.1036C24.4203 21.7822 23.5166 23.5301 23.5729 24.4735L24.0761 32.9546C27.5817 34.5535 30.8457 31.2597 33.8118 34.1C34.4374 34.6992 35.5464 34.8415 36.3674 34.4476C41.697 31.892 46.2918 34.9673 46.0435 35.305L45.5304 35.9968C43.0212 34.2291 39.8532 34.0603 37.0195 35.3546C35.3213 36.1292 34.0104 35.7585 32.6002 34.484C30.9682 33.0109 27.4791 35.3546 24.2383 34.2291L23.8013 35.8081C24.7746 36.2252 26.0292 36.5199 26.9991 36.3411C29.078 35.9571 30.3194 36.5794 32.0672 37.4732C35.5265 39.2443 43.2794 39.4594 44.0341 42.2302C44.097 42.4553 43.6468 42.8294 43.4548 42.9154C41.9751 41.4258 39.9061 40.6214 37.569 40.3168C36.3475 41.9554 38.8435 43.3325 38.4562 43.8589L37.9299 44.5706C36.5064 43.4517 35.9337 41.7932 36.0496 40.052C33.8449 39.4363 31.8587 38.8073 29.7864 37.7116C28.1577 36.8509 25.7048 38.3074 23.1128 36.7781L22.2885 37.748C22.0568 38.0228 22.4805 38.8437 22.6394 39.2211C24.0959 42.6175 26.5125 40.4658 28.4623 43.0048C29.3031 44.1005 30.4187 44.5077 31.7461 44.4845L32.4612 44.4713C32.6432 44.468 32.8187 45.0473 32.6598 45.14C30.9053 46.196 28.3497 45.0639 27.0157 42.7764L23.7914 42.1077C23.1227 42.8559 22.5268 43.3359 21.3053 43.8059L21.3152 43.8026ZM17.3925 8.06083C20.1831 8.84207 21.8979 10.5701 23.1161 13.0462C23.2088 7.89531 20.6168 4.38965 15.6347 4.11159C13.7346 4.00565 11.7947 3.77062 9.92765 3.43959C10.4441 4.82331 11.0499 6.44538 11.5266 7.96483C12.9467 12.4636 17.3627 14.8603 21.9574 13.2779C20.9842 10.9342 19.1966 9.60345 16.8231 8.93807C12.5859 7.75296 12.8043 5.23379 13.4863 5.69724C14.6813 6.51158 15.3434 7.48814 17.3925 8.06083ZM26.2609 19.3888C29.846 20.799 33.1795 19.8026 35.7086 17.5019C37.0195 15.8203 38.1649 14.1552 39.3599 12.2087L32.7492 12.1292C30.998 12.0763 29.2932 12.3874 27.6843 13.0826C26.4363 14.516 25.8537 16.2672 25.9431 17.9985C27.8466 16.7737 29.3031 15.9461 31.1933 15.2939C32.4413 14.7974 33.643 14.0492 34.742 13.2415L35.2054 13.7248C35.3048 13.8308 35.0267 14.4034 34.891 14.516C32.2791 16.6876 28.8992 16.6975 26.2609 19.3888ZM10.3282 22.5039C13.1619 24.2716 16.0352 23.6757 19.7395 24.553C19.4217 22.6131 18.3591 21.0407 16.7072 19.9549C14.9958 19.7232 13.291 19.7861 11.606 20.1568L5.46531 21.5108C9.00076 26.281 14.9892 29.833 19.8157 26.0658C18.2863 25.2746 16.737 25.0363 15.0256 24.9535C8.61676 24.6523 8.31883 21.2525 10.3249 22.5039H10.3282Z" fill="#3D4A3B"/>
<path d="M31.0278 6.26965L30.9649 6.97806C30.9516 7.14358 30.5709 7.11048 30.1869 7.10385C29.7996 5.77972 28.694 4.37944 30.0049 2.57861L31.0278 6.26634V6.26965Z" fill="#3D4A3B"/>
<path d="M32.9182 3.0752C34.2125 3.29699 33.4611 6.57092 32.6269 6.89864C32.4183 6.97809 32.1072 6.22002 32.1634 5.99823L32.9182 3.07851V3.0752Z" fill="#3D4A3B"/>
<path d="M35.7815 7.50136L35.2485 8.03102C35.1062 8.17336 34.6162 7.67681 34.4739 7.45833L36.4104 5.39267C36.4932 5.30329 37.1089 5.23708 37.1486 5.35295L37.3473 5.9455L35.7815 7.50136Z" fill="#3D4A3B"/>
</g>
<defs>
<clipPath id="clip0_1048_1088">
<rect width="48" height="48" fill="white"/>
</clipPath>
</defs>
</svg>
